<svg xmlns="http://www.w3.org/2000/svg" width="1600" height="900" viewBox="0 0 1600 900" role="img" aria-label="OPNsense VLAN Topology">
<defs><pattern id="grid" width="40" height="40" patternUnits="userSpaceOnUse"><path d="M 40 0 L 0 0 0 40" fill="none" stroke="#1e293b" stroke-width="0.7"/></pattern><filter id="glow"><feGaussianBlur stdDeviation="2.2" result="coloredBlur"/><feMerge><feMergeNode in="coloredBlur"/><feMergeNode in="SourceGraphic"/></feMerge></filter></defs>
<rect width="1600" height="900" fill="#020617"/><rect width="1600" height="900" fill="url(#grid)" opacity="0.55"/>
<text x="70" y="82" fill="#e2e8f0" font-family="Arial, sans-serif" font-size="42" font-weight="700">OPNsense VLAN Topology</text>
<text x="72" y="122" fill="#94a3b8" font-family="Arial, sans-serif" font-size="22">HQ-FW01 WAN/LAN trunk with canonical VLAN gateways</text>
<path d="M 310 430.0 C 365 430.0, 375 430.0, 430 430.0" stroke="#22d3ee" stroke-width="3" fill="none" opacity="0.45"/>
<path d="M 730 430.0 C 785 430.0, 795 430.0, 850 430.0" stroke="#22d3ee" stroke-width="3" fill="none" opacity="0.45"/>
<path d="M 1120 430.0 C 1175 430.0, 1185 385.0, 1240 385.0" stroke="#22d3ee" stroke-width="3" fill="none" opacity="0.45"/>
<rect x="70" y="330" width="240" height="200" rx="22" fill="#0f172a" stroke="#fbbf24" stroke-width="3" filter="url(#glow)"/>
<text x="98" y="374" fill="#fbbf24" font-family="Arial, sans-serif" font-size="26" font-weight="700">WAN</text>
<text x="98" y="414" fill="#e2e8f0" font-family="Arial, sans-serif" font-size="22">vmbr0</text>
<text x="98" y="450" fill="#e2e8f0" font-family="Arial, sans-serif" font-size="22">ISP DHCP/static</text>
<text x="98" y="486" fill="#e2e8f0" font-family="Arial, sans-serif" font-size="22">Default route</text>
<rect x="430" y="280" width="300" height="300" rx="22" fill="#0f172a" stroke="#fb7185" stroke-width="3" filter="url(#glow)"/>
<text x="458" y="324" fill="#fb7185" font-family="Arial, sans-serif" font-size="26" font-weight="700">HQ-FW01</text>
<text x="458" y="364" fill="#e2e8f0" font-family="Arial, sans-serif" font-size="22">OPNsense VM</text>
<text x="458" y="400" fill="#e2e8f0" font-family="Arial, sans-serif" font-size="22">Policy enforcement</text>
<text x="458" y="436" fill="#e2e8f0" font-family="Arial, sans-serif" font-size="22">NAT / firewall</text>
<text x="458" y="472" fill="#e2e8f0" font-family="Arial, sans-serif" font-size="22">Config export</text>
<rect x="850" y="300" width="270" height="260" rx="22" fill="#0f172a" stroke="#22d3ee" stroke-width="3" filter="url(#glow)"/>
<text x="878" y="344" fill="#22d3ee" font-family="Arial, sans-serif" font-size="26" font-weight="700">LAN Trunk</text>
<text x="878" y="384" fill="#e2e8f0" font-family="Arial, sans-serif" font-size="22">vmbr1</text>
<text x="878" y="420" fill="#e2e8f0" font-family="Arial, sans-serif" font-size="22">802.1Q VLANs</text>
<text x="878" y="456" fill="#e2e8f0" font-family="Arial, sans-serif" font-size="22">Parent interface</text>
<rect x="1240" y="170" width="300" height="430" rx="22" fill="#0f172a" stroke="#34d399" stroke-width="3" filter="url(#glow)"/>
<text x="1268" y="214" fill="#34d399" font-family="Arial, sans-serif" font-size="26" font-weight="700">VLAN Gateways</text>
<text x="1268" y="254" fill="#e2e8f0" font-family="Arial, sans-serif" font-size="22">10 Mgmt .1</text>
<text x="1268" y="290" fill="#e2e8f0" font-family="Arial, sans-serif" font-size="22">20 Servers .1</text>
<text x="1268" y="326" fill="#e2e8f0" font-family="Arial, sans-serif" font-size="22">30 Workstations .1</text>
<text x="1268" y="362" fill="#e2e8f0" font-family="Arial, sans-serif" font-size="22">70 Guest .1</text>
<text x="1268" y="398" fill="#e2e8f0" font-family="Arial, sans-serif" font-size="22">90 Backup .1</text>
<text x="1268" y="434" fill="#e2e8f0" font-family="Arial, sans-serif" font-size="22">100 Hypervisors .1</text>
<text x="70" y="850" fill="#94a3b8" font-family="Arial, sans-serif" font-size="18">GEIL architecture visual · dark 16:9 · canonical GNTECH values</text></svg>