<svg xmlns="http://www.w3.org/2000/svg" width="1600" height="900" viewBox="0 0 1600 900" role="img" aria-label="GNTECH Security Zone Model">
<defs><pattern id="grid" width="40" height="40" patternUnits="userSpaceOnUse"><path d="M 40 0 L 0 0 0 40" fill="none" stroke="#1e293b" stroke-width="0.7"/></pattern><filter id="glow"><feGaussianBlur stdDeviation="2.2" result="coloredBlur"/><feMerge><feMergeNode in="coloredBlur"/><feMergeNode in="SourceGraphic"/></feMerge></filter></defs>
<rect width="1600" height="900" fill="#020617"/><rect width="1600" height="900" fill="url(#grid)" opacity="0.55"/>
<text x="70" y="82" fill="#e2e8f0" font-family="Arial, sans-serif" font-size="42" font-weight="700">GNTECH Security Zone Model</text>
<text x="72" y="122" fill="#94a3b8" font-family="Arial, sans-serif" font-size="22">HQ-FW01 owns all VLAN gateways and enforces inter-zone policy</text>
<path d="M 370 265.0 C 425 265.0, 405 265.0, 460 265.0" stroke="#22d3ee" stroke-width="3" fill="none" opacity="0.45"/>
<path d="M 820 265.0 C 875 265.0, 405 615.0, 460 615.0" stroke="#22d3ee" stroke-width="3" fill="none" opacity="0.45"/>
<path d="M 820 615.0 C 875 615.0, 855 375.0, 910 375.0" stroke="#22d3ee" stroke-width="3" fill="none" opacity="0.45"/>
<path d="M 1270 375.0 C 1325 375.0, 1265 435.0, 1320 435.0" stroke="#22d3ee" stroke-width="3" fill="none" opacity="0.45"/>
<rect x="70" y="180" width="300" height="170" rx="22" fill="#0f172a" stroke="#22d3ee" stroke-width="3" filter="url(#glow)"/>
<text x="98" y="224" fill="#22d3ee" font-family="Arial, sans-serif" font-size="26" font-weight="700">Management</text>
<text x="98" y="264" fill="#e2e8f0" font-family="Arial, sans-serif" font-size="22">VLAN 10</text>
<text x="98" y="300" fill="#e2e8f0" font-family="Arial, sans-serif" font-size="22">172.20.10.0/24</text>
<text x="98" y="336" fill="#e2e8f0" font-family="Arial, sans-serif" font-size="22">Firewall / switch mgmt</text>
<rect x="460" y="120" width="360" height="290" rx="22" fill="#0f172a" stroke="#34d399" stroke-width="3" filter="url(#glow)"/>
<text x="488" y="164" fill="#34d399" font-family="Arial, sans-serif" font-size="26" font-weight="700">Infrastructure</text>
<text x="488" y="204" fill="#e2e8f0" font-family="Arial, sans-serif" font-size="22">VLAN 20 Servers</text>
<text x="488" y="240" fill="#e2e8f0" font-family="Arial, sans-serif" font-size="22">VLAN 90 Backup</text>
<text x="488" y="276" fill="#e2e8f0" font-family="Arial, sans-serif" font-size="22">VLAN 100 Hypervisors</text>
<text x="488" y="312" fill="#e2e8f0" font-family="Arial, sans-serif" font-size="22">HQ-DC01 / PBS-HQ01</text>
<rect x="460" y="500" width="360" height="230" rx="22" fill="#0f172a" stroke="#38bdf8" stroke-width="3" filter="url(#glow)"/>
<text x="488" y="544" fill="#38bdf8" font-family="Arial, sans-serif" font-size="26" font-weight="700">User Access</text>
<text x="488" y="584" fill="#e2e8f0" font-family="Arial, sans-serif" font-size="22">VLAN 30 Workstations</text>
<text x="488" y="620" fill="#e2e8f0" font-family="Arial, sans-serif" font-size="22">VLAN 60 Corporate WiFi</text>
<text x="488" y="656" fill="#e2e8f0" font-family="Arial, sans-serif" font-size="22">HQ-MGMT01 / HQ-W11-001</text>
<rect x="910" y="220" width="360" height="310" rx="22" fill="#0f172a" stroke="#fb7185" stroke-width="3" filter="url(#glow)"/>
<text x="938" y="264" fill="#fb7185" font-family="Arial, sans-serif" font-size="26" font-weight="700">Restricted / Untrusted</text>
<text x="938" y="304" fill="#e2e8f0" font-family="Arial, sans-serif" font-size="22">VLAN 70 Guest WiFi</text>
<text x="938" y="340" fill="#e2e8f0" font-family="Arial, sans-serif" font-size="22">VLAN 80 DMZ</text>
<text x="938" y="376" fill="#e2e8f0" font-family="Arial, sans-serif" font-size="22">No implicit internal access</text>
<text x="938" y="412" fill="#e2e8f0" font-family="Arial, sans-serif" font-size="22">Explicit allow only</text>
<rect x="1320" y="350" width="220" height="170" rx="22" fill="#0f172a" stroke="#fbbf24" stroke-width="3" filter="url(#glow)"/>
<text x="1348" y="394" fill="#fbbf24" font-family="Arial, sans-serif" font-size="26" font-weight="700">Internet Edge</text>
<text x="1348" y="434" fill="#e2e8f0" font-family="Arial, sans-serif" font-size="22">WAN</text>
<text x="1348" y="470" fill="#e2e8f0" font-family="Arial, sans-serif" font-size="22">NAT</text>
<text x="1348" y="506" fill="#e2e8f0" font-family="Arial, sans-serif" font-size="22">Default route</text>
<text x="70" y="850" fill="#94a3b8" font-family="Arial, sans-serif" font-size="18">GEIL architecture visual · dark 16:9 · canonical GNTECH values</text></svg>