<svg xmlns="http://www.w3.org/2000/svg" width="1600" height="900" viewBox="0 0 1600 900" role="img" aria-label="Enterprise Lab Operations HLD">
<defs><pattern id="grid" width="40" height="40" patternUnits="userSpaceOnUse"><path d="M 40 0 L 0 0 0 40" fill="none" stroke="#1e293b" stroke-width="0.7"/></pattern><filter id="glow"><feGaussianBlur stdDeviation="2.2" result="coloredBlur"/><feMerge><feMergeNode in="coloredBlur"/><feMergeNode in="SourceGraphic"/></feMerge></filter></defs>
<rect width="1600" height="900" fill="#020617"/><rect width="1600" height="900" fill="url(#grid)" opacity="0.55"/>
<text x="70" y="82" fill="#e2e8f0" font-family="Arial, sans-serif" font-size="42" font-weight="700">Enterprise Lab Operations HLD</text>
<text x="72" y="122" fill="#94a3b8" font-family="Arial, sans-serif" font-size="22">Storage, backup, monitoring, and recovery readiness for Phase 1</text>
<path d="M 380 385.0 C 435 385.0, 445 385.0, 500 385.0" stroke="#22d3ee" stroke-width="3" fill="none" opacity="0.45"/>
<path d="M 810 385.0 C 865 385.0, 865 370.0, 920 370.0" stroke="#22d3ee" stroke-width="3" fill="none" opacity="0.45"/>
<path d="M 1220 370.0 C 1275 370.0, 1265 395.0, 1320 395.0" stroke="#22d3ee" stroke-width="3" fill="none" opacity="0.45"/>
<rect x="90" y="250" width="290" height="270" rx="22" fill="#0f172a" stroke="#38bdf8" stroke-width="3" filter="url(#glow)"/>
<text x="118" y="294" fill="#38bdf8" font-family="Arial, sans-serif" font-size="26" font-weight="700">Workloads</text>
<text x="118" y="334" fill="#e2e8f0" font-family="Arial, sans-serif" font-size="22">HQ-FW01</text>
<text x="118" y="370" fill="#e2e8f0" font-family="Arial, sans-serif" font-size="22">HQ-DC01</text>
<text x="118" y="406" fill="#e2e8f0" font-family="Arial, sans-serif" font-size="22">HQ-MGMT01</text>
<text x="118" y="442" fill="#e2e8f0" font-family="Arial, sans-serif" font-size="22">HQ-W11-001</text>
<rect x="500" y="220" width="310" height="330" rx="22" fill="#0f172a" stroke="#34d399" stroke-width="3" filter="url(#glow)"/>
<text x="528" y="264" fill="#34d399" font-family="Arial, sans-serif" font-size="26" font-weight="700">Backup</text>
<text x="528" y="304" fill="#e2e8f0" font-family="Arial, sans-serif" font-size="22">PBS-HQ01</text>
<text x="528" y="340" fill="#e2e8f0" font-family="Arial, sans-serif" font-size="22">VM backups</text>
<text x="528" y="376" fill="#e2e8f0" font-family="Arial, sans-serif" font-size="22">Config exports</text>
<text x="528" y="412" fill="#e2e8f0" font-family="Arial, sans-serif" font-size="22">Restore tests</text>
<rect x="920" y="180" width="300" height="380" rx="22" fill="#0f172a" stroke="#22d3ee" stroke-width="3" filter="url(#glow)"/>
<text x="948" y="224" fill="#22d3ee" font-family="Arial, sans-serif" font-size="26" font-weight="700">Monitoring</text>
<text x="948" y="264" fill="#e2e8f0" font-family="Arial, sans-serif" font-size="22">Identity health</text>
<text x="948" y="300" fill="#e2e8f0" font-family="Arial, sans-serif" font-size="22">Firewall logs</text>
<text x="948" y="336" fill="#e2e8f0" font-family="Arial, sans-serif" font-size="22">Host capacity</text>
<text x="948" y="372" fill="#e2e8f0" font-family="Arial, sans-serif" font-size="22">Backup jobs</text>
<text x="948" y="408" fill="#e2e8f0" font-family="Arial, sans-serif" font-size="22">Cloud signals</text>
<rect x="1320" y="260" width="220" height="270" rx="22" fill="#0f172a" stroke="#fbbf24" stroke-width="3" filter="url(#glow)"/>
<text x="1348" y="304" fill="#fbbf24" font-family="Arial, sans-serif" font-size="26" font-weight="700">Recovery</text>
<text x="1348" y="344" fill="#e2e8f0" font-family="Arial, sans-serif" font-size="22">Docs first</text>
<text x="1348" y="380" fill="#e2e8f0" font-family="Arial, sans-serif" font-size="22">Identity first</text>
<text x="1348" y="416" fill="#e2e8f0" font-family="Arial, sans-serif" font-size="22">Network edge</text>
<text x="1348" y="452" fill="#e2e8f0" font-family="Arial, sans-serif" font-size="22">Validated restore</text>
<text x="70" y="850" fill="#94a3b8" font-family="Arial, sans-serif" font-size="18">GEIL architecture visual · dark 16:9 · canonical GNTECH values</text></svg>