<svg xmlns="http://www.w3.org/2000/svg" width="1600" height="900" viewBox="0 0 1600 900" role="img" aria-label="Enterprise Lab Network HLD">
<defs><pattern id="grid" width="40" height="40" patternUnits="userSpaceOnUse"><path d="M 40 0 L 0 0 0 40" fill="none" stroke="#1e293b" stroke-width="0.7"/></pattern><filter id="glow"><feGaussianBlur stdDeviation="2.2" result="coloredBlur"/><feMerge><feMergeNode in="coloredBlur"/><feMergeNode in="SourceGraphic"/></feMerge></filter></defs>
<rect width="1600" height="900" fill="#020617"/><rect width="1600" height="900" fill="url(#grid)" opacity="0.55"/>
<text x="70" y="82" fill="#e2e8f0" font-family="Arial, sans-serif" font-size="42" font-weight="700">Enterprise Lab Network HLD</text>
<text x="72" y="122" fill="#94a3b8" font-family="Arial, sans-serif" font-size="22">HQ network foundation with canonical VLANs and future expansion path</text>
<path d="M 370 435.0 C 425 435.0, 445 435.0, 500 435.0" stroke="#22d3ee" stroke-width="3" fill="none" opacity="0.45"/>
<path d="M 780 435.0 C 835 435.0, 845 390.0, 900 390.0" stroke="#22d3ee" stroke-width="3" fill="none" opacity="0.45"/>
<path d="M 1230 390.0 C 1285 390.0, 1265 425.0, 1320 425.0" stroke="#22d3ee" stroke-width="3" fill="none" opacity="0.45"/>
<rect x="90" y="330" width="280" height="210" rx="22" fill="#0f172a" stroke="#22d3ee" stroke-width="3" filter="url(#glow)"/>
<text x="118" y="374" fill="#22d3ee" font-family="Arial, sans-serif" font-size="26" font-weight="700">HQ-FW01</text>
<text x="118" y="414" fill="#e2e8f0" font-family="Arial, sans-serif" font-size="22">OPNsense firewall</text>
<text x="118" y="450" fill="#e2e8f0" font-family="Arial, sans-serif" font-size="22">All VLAN gateways</text>
<text x="118" y="486" fill="#e2e8f0" font-family="Arial, sans-serif" font-size="22">Default route / NAT</text>
<rect x="500" y="300" width="280" height="270" rx="22" fill="#0f172a" stroke="#38bdf8" stroke-width="3" filter="url(#glow)"/>
<text x="528" y="344" fill="#38bdf8" font-family="Arial, sans-serif" font-size="26" font-weight="700">Core Trunk</text>
<text x="528" y="384" fill="#e2e8f0" font-family="Arial, sans-serif" font-size="22">802.1Q trunk</text>
<text x="528" y="420" fill="#e2e8f0" font-family="Arial, sans-serif" font-size="22">VLANs 10-100</text>
<text x="528" y="456" fill="#e2e8f0" font-family="Arial, sans-serif" font-size="22">No L3 bypass</text>
<rect x="900" y="180" width="330" height="420" rx="22" fill="#0f172a" stroke="#34d399" stroke-width="3" filter="url(#glow)"/>
<text x="928" y="224" fill="#34d399" font-family="Arial, sans-serif" font-size="26" font-weight="700">Enterprise Zones</text>
<text x="928" y="264" fill="#e2e8f0" font-family="Arial, sans-serif" font-size="22">Mgmt / Servers</text>
<text x="928" y="300" fill="#e2e8f0" font-family="Arial, sans-serif" font-size="22">Workstations / WiFi</text>
<text x="928" y="336" fill="#e2e8f0" font-family="Arial, sans-serif" font-size="22">Printers / Voice</text>
<text x="928" y="372" fill="#e2e8f0" font-family="Arial, sans-serif" font-size="22">DMZ / Backup</text>
<text x="928" y="408" fill="#e2e8f0" font-family="Arial, sans-serif" font-size="22">Hypervisors</text>
<rect x="1320" y="300" width="220" height="250" rx="22" fill="#0f172a" stroke="#fbbf24" stroke-width="3" filter="url(#glow)"/>
<text x="1348" y="344" fill="#fbbf24" font-family="Arial, sans-serif" font-size="26" font-weight="700">Future Regions</text>
<text x="1348" y="384" fill="#e2e8f0" font-family="Arial, sans-serif" font-size="22">Routed only</text>
<text x="1348" y="420" fill="#e2e8f0" font-family="Arial, sans-serif" font-size="22">No stretched VLANs</text>
<text x="1348" y="456" fill="#e2e8f0" font-family="Arial, sans-serif" font-size="22">AD sites later</text>
<text x="70" y="850" fill="#94a3b8" font-family="Arial, sans-serif" font-size="18">GEIL architecture visual · dark 16:9 · canonical GNTECH values</text></svg>