<svg xmlns="http://www.w3.org/2000/svg" width="1600" height="900" viewBox="0 0 1600 900" role="img" aria-label="GEIL Enterprise Reference Architecture">
<defs><pattern id="grid" width="40" height="40" patternUnits="userSpaceOnUse"><path d="M 40 0 L 0 0 0 40" fill="none" stroke="#1e293b" stroke-width="0.7"/></pattern><filter id="glow"><feGaussianBlur stdDeviation="2.2" result="coloredBlur"/><feMerge><feMergeNode in="coloredBlur"/><feMergeNode in="SourceGraphic"/></feMerge></filter></defs>
<rect width="1600" height="900" fill="#020617"/><rect width="1600" height="900" fill="url(#grid)" opacity="0.55"/>
<text x="70" y="82" fill="#e2e8f0" font-family="Arial, sans-serif" font-size="42" font-weight="700">GEIL Enterprise Reference Architecture</text>
<text x="72" y="122" fill="#94a3b8" font-family="Arial, sans-serif" font-size="22">Capability layers for the long-term multinational target state</text>
<path d="M 380 280.0 C 435 280.0, 400 280.0, 455 280.0" stroke="#22d3ee" stroke-width="3" fill="none" opacity="0.45"/>
<path d="M 765 280.0 C 820 280.0, 785 285.0, 840 285.0" stroke="#22d3ee" stroke-width="3" fill="none" opacity="0.45"/>
<path d="M 1150 285.0 C 1205 285.0, 400 635.0, 455 635.0" stroke="#22d3ee" stroke-width="3" fill="none" opacity="0.45"/>
<path d="M 765 635.0 C 820 635.0, 785 635.0, 840 635.0" stroke="#22d3ee" stroke-width="3" fill="none" opacity="0.45"/>
<rect x="70" y="165" width="310" height="230" rx="22" fill="#0f172a" stroke="#22d3ee" stroke-width="3" filter="url(#glow)"/>
<text x="98" y="209" fill="#22d3ee" font-family="Arial, sans-serif" font-size="26" font-weight="700">Business + Apps</text>
<text x="98" y="249" fill="#e2e8f0" font-family="Arial, sans-serif" font-size="22">Business capabilities</text>
<text x="98" y="285" fill="#e2e8f0" font-family="Arial, sans-serif" font-size="22">Collaboration</text>
<text x="98" y="321" fill="#e2e8f0" font-family="Arial, sans-serif" font-size="22">Internal services</text>
<rect x="455" y="145" width="310" height="270" rx="22" fill="#0f172a" stroke="#a78bfa" stroke-width="3" filter="url(#glow)"/>
<text x="483" y="189" fill="#a78bfa" font-family="Arial, sans-serif" font-size="26" font-weight="700">Identity + Access</text>
<text x="483" y="229" fill="#e2e8f0" font-family="Arial, sans-serif" font-size="22">corp.gntech.me</text>
<text x="483" y="265" fill="#e2e8f0" font-family="Arial, sans-serif" font-size="22">gntech.me tenant</text>
<text x="483" y="301" fill="#e2e8f0" font-family="Arial, sans-serif" font-size="22">Privileged access</text>
<text x="483" y="337" fill="#e2e8f0" font-family="Arial, sans-serif" font-size="22">Device identity</text>
<rect x="840" y="130" width="310" height="310" rx="22" fill="#0f172a" stroke="#fb7185" stroke-width="3" filter="url(#glow)"/>
<text x="868" y="174" fill="#fb7185" font-family="Arial, sans-serif" font-size="26" font-weight="700">Network + Security</text>
<text x="868" y="214" fill="#e2e8f0" font-family="Arial, sans-serif" font-size="22">Segmentation</text>
<text x="868" y="250" fill="#e2e8f0" font-family="Arial, sans-serif" font-size="22">Zero Trust policy</text>
<text x="868" y="286" fill="#e2e8f0" font-family="Arial, sans-serif" font-size="22">PKI trust</text>
<text x="868" y="322" fill="#e2e8f0" font-family="Arial, sans-serif" font-size="22">Defender signals</text>
<rect x="455" y="520" width="310" height="230" rx="22" fill="#0f172a" stroke="#34d399" stroke-width="3" filter="url(#glow)"/>
<text x="483" y="564" fill="#34d399" font-family="Arial, sans-serif" font-size="26" font-weight="700">Platform + Cloud</text>
<text x="483" y="604" fill="#e2e8f0" font-family="Arial, sans-serif" font-size="22">Compute / storage</text>
<text x="483" y="640" fill="#e2e8f0" font-family="Arial, sans-serif" font-size="22">Microsoft 365</text>
<text x="483" y="676" fill="#e2e8f0" font-family="Arial, sans-serif" font-size="22">Intune</text>
<text x="483" y="712" fill="#e2e8f0" font-family="Arial, sans-serif" font-size="22">Cloudflare</text>
<rect x="840" y="520" width="360" height="230" rx="22" fill="#0f172a" stroke="#fbbf24" stroke-width="3" filter="url(#glow)"/>
<text x="868" y="564" fill="#fbbf24" font-family="Arial, sans-serif" font-size="26" font-weight="700">Operations + Recovery</text>
<text x="868" y="604" fill="#e2e8f0" font-family="Arial, sans-serif" font-size="22">Monitoring</text>
<text x="868" y="640" fill="#e2e8f0" font-family="Arial, sans-serif" font-size="22">Backup</text>
<text x="868" y="676" fill="#e2e8f0" font-family="Arial, sans-serif" font-size="22">DR exercises</text>
<text x="868" y="712" fill="#e2e8f0" font-family="Arial, sans-serif" font-size="22">Change evidence</text>
<text x="70" y="850" fill="#94a3b8" font-family="Arial, sans-serif" font-size="18">GEIL architecture visual · dark 16:9 · canonical GNTECH values</text></svg>