<svg xmlns="http://www.w3.org/2000/svg" width="1600" height="900" viewBox="0 0 1600 900" role="img" aria-label="Enterprise Lab Identity HLD">
<defs><pattern id="grid" width="40" height="40" patternUnits="userSpaceOnUse"><path d="M 40 0 L 0 0 0 40" fill="none" stroke="#1e293b" stroke-width="0.7"/></pattern><filter id="glow"><feGaussianBlur stdDeviation="2.2" result="coloredBlur"/><feMerge><feMergeNode in="coloredBlur"/><feMergeNode in="SourceGraphic"/></feMerge></filter></defs>
<rect width="1600" height="900" fill="#020617"/><rect width="1600" height="900" fill="url(#grid)" opacity="0.55"/>
<text x="70" y="82" fill="#e2e8f0" font-family="Arial, sans-serif" font-size="42" font-weight="700">Enterprise Lab Identity HLD</text>
<text x="72" y="122" fill="#94a3b8" font-family="Arial, sans-serif" font-size="22">Single forest/domain baseline with cloud integration path</text>
<path d="M 420 390.0 C 475 390.0, 485 390.0, 540 390.0" stroke="#22d3ee" stroke-width="3" fill="none" opacity="0.45"/>
<path d="M 860 390.0 C 915 390.0, 925 360.0, 980 360.0" stroke="#22d3ee" stroke-width="3" fill="none" opacity="0.45"/>
<path d="M 1280 360.0 C 1335 360.0, 1265 390.0, 1320 390.0" stroke="#22d3ee" stroke-width="3" fill="none" opacity="0.45"/>
<rect x="90" y="260" width="330" height="260" rx="22" fill="#0f172a" stroke="#a78bfa" stroke-width="3" filter="url(#glow)"/>
<text x="118" y="304" fill="#a78bfa" font-family="Arial, sans-serif" font-size="26" font-weight="700">Forest + Domain</text>
<text x="118" y="344" fill="#e2e8f0" font-family="Arial, sans-serif" font-size="22">corp.gntech.me</text>
<text x="118" y="380" fill="#e2e8f0" font-family="Arial, sans-serif" font-size="22">NetBIOS CORP</text>
<text x="118" y="416" fill="#e2e8f0" font-family="Arial, sans-serif" font-size="22">Single-domain Phase 1</text>
<rect x="540" y="220" width="320" height="340" rx="22" fill="#0f172a" stroke="#22d3ee" stroke-width="3" filter="url(#glow)"/>
<text x="568" y="264" fill="#22d3ee" font-family="Arial, sans-serif" font-size="26" font-weight="700">HQ AD Site</text>
<text x="568" y="304" fill="#e2e8f0" font-family="Arial, sans-serif" font-size="22">HQ site</text>
<text x="568" y="340" fill="#e2e8f0" font-family="Arial, sans-serif" font-size="22">HQ-DC01 primary</text>
<text x="568" y="376" fill="#e2e8f0" font-family="Arial, sans-serif" font-size="22">HQ-DC02 future</text>
<text x="568" y="412" fill="#e2e8f0" font-family="Arial, sans-serif" font-size="22">AD DNS / DHCP</text>
<rect x="980" y="170" width="300" height="380" rx="22" fill="#0f172a" stroke="#fbbf24" stroke-width="3" filter="url(#glow)"/>
<text x="1008" y="214" fill="#fbbf24" font-family="Arial, sans-serif" font-size="26" font-weight="700">Trust Services</text>
<text x="1008" y="254" fill="#e2e8f0" font-family="Arial, sans-serif" font-size="22">PKI hierarchy</text>
<text x="1008" y="290" fill="#e2e8f0" font-family="Arial, sans-serif" font-size="22">NPS / RADIUS later</text>
<text x="1008" y="326" fill="#e2e8f0" font-family="Arial, sans-serif" font-size="22">Device certificates</text>
<text x="1008" y="362" fill="#e2e8f0" font-family="Arial, sans-serif" font-size="22">Service TLS</text>
<rect x="1320" y="260" width="220" height="260" rx="22" fill="#0f172a" stroke="#34d399" stroke-width="3" filter="url(#glow)"/>
<text x="1348" y="304" fill="#34d399" font-family="Arial, sans-serif" font-size="26" font-weight="700">Cloud Identity</text>
<text x="1348" y="344" fill="#e2e8f0" font-family="Arial, sans-serif" font-size="22">gntech.me</text>
<text x="1348" y="380" fill="#e2e8f0" font-family="Arial, sans-serif" font-size="22">Entra ID</text>
<text x="1348" y="416" fill="#e2e8f0" font-family="Arial, sans-serif" font-size="22">M365 / Intune</text>
<text x="1348" y="452" fill="#e2e8f0" font-family="Arial, sans-serif" font-size="22">Defender</text>
<text x="70" y="850" fill="#94a3b8" font-family="Arial, sans-serif" font-size="18">GEIL architecture visual · dark 16:9 · canonical GNTECH values</text></svg>