<svg xmlns="http://www.w3.org/2000/svg" width="1600" height="900" viewBox="0 0 1600 900" role="img" aria-label="Proxmox Bridge Topology">
<defs><pattern id="grid" width="40" height="40" patternUnits="userSpaceOnUse"><path d="M 40 0 L 0 0 0 40" fill="none" stroke="#1e293b" stroke-width="0.7"/></pattern><filter id="glow"><feGaussianBlur stdDeviation="2.2" result="coloredBlur"/><feMerge><feMergeNode in="coloredBlur"/><feMergeNode in="SourceGraphic"/></feMerge></filter></defs>
<rect width="1600" height="900" fill="#020617"/><rect width="1600" height="900" fill="url(#grid)" opacity="0.55"/>
<text x="70" y="82" fill="#e2e8f0" font-family="Arial, sans-serif" font-size="42" font-weight="700">Proxmox Bridge Topology</text>
<text x="72" y="122" fill="#94a3b8" font-family="Arial, sans-serif" font-size="22">PVE-HQ01 bridge layout for WAN isolation and VLAN-aware LAN trunking</text>
<path d="M 370 400.0 C 425 400.0, 445 400.0, 500 400.0" stroke="#22d3ee" stroke-width="3" fill="none" opacity="0.45"/>
<path d="M 830 400.0 C 885 400.0, 905 400.0, 960 400.0" stroke="#22d3ee" stroke-width="3" fill="none" opacity="0.45"/>
<path d="M 1220 400.0 C 1275 400.0, 1265 400.0, 1320 400.0" stroke="#22d3ee" stroke-width="3" fill="none" opacity="0.45"/>
<rect x="70" y="250" width="300" height="300" rx="22" fill="#0f172a" stroke="#fbbf24" stroke-width="3" filter="url(#glow)"/>
<text x="98" y="294" fill="#fbbf24" font-family="Arial, sans-serif" font-size="26" font-weight="700">Physical NICs</text>
<text x="98" y="334" fill="#e2e8f0" font-family="Arial, sans-serif" font-size="22">WAN uplink</text>
<text x="98" y="370" fill="#e2e8f0" font-family="Arial, sans-serif" font-size="22">LAN trunk uplink</text>
<text x="98" y="406" fill="#e2e8f0" font-family="Arial, sans-serif" font-size="22">Mgmt uplink</text>
<rect x="500" y="200" width="330" height="400" rx="22" fill="#0f172a" stroke="#22d3ee" stroke-width="3" filter="url(#glow)"/>
<text x="528" y="244" fill="#22d3ee" font-family="Arial, sans-serif" font-size="26" font-weight="700">Proxmox Bridges</text>
<text x="528" y="284" fill="#e2e8f0" font-family="Arial, sans-serif" font-size="22">vmbr0 WAN only</text>
<text x="528" y="320" fill="#e2e8f0" font-family="Arial, sans-serif" font-size="22">vmbr1 VLAN-aware</text>
<text x="528" y="356" fill="#e2e8f0" font-family="Arial, sans-serif" font-size="22">vmbr100 management</text>
<text x="528" y="392" fill="#e2e8f0" font-family="Arial, sans-serif" font-size="22">No inter-VLAN routing</text>
<rect x="960" y="250" width="260" height="300" rx="22" fill="#0f172a" stroke="#fb7185" stroke-width="3" filter="url(#glow)"/>
<text x="988" y="294" fill="#fb7185" font-family="Arial, sans-serif" font-size="26" font-weight="700">Firewall VM</text>
<text x="988" y="334" fill="#e2e8f0" font-family="Arial, sans-serif" font-size="22">HQ-FW01</text>
<text x="988" y="370" fill="#e2e8f0" font-family="Arial, sans-serif" font-size="22">net0 -> vmbr0</text>
<text x="988" y="406" fill="#e2e8f0" font-family="Arial, sans-serif" font-size="22">net1 -> vmbr1 trunk</text>
<rect x="1320" y="230" width="230" height="340" rx="22" fill="#0f172a" stroke="#34d399" stroke-width="3" filter="url(#glow)"/>
<text x="1348" y="274" fill="#34d399" font-family="Arial, sans-serif" font-size="26" font-weight="700">Guest VMs</text>
<text x="1348" y="314" fill="#e2e8f0" font-family="Arial, sans-serif" font-size="22">HQ-DC01 VLAN20</text>
<text x="1348" y="350" fill="#e2e8f0" font-family="Arial, sans-serif" font-size="22">HQ-MGMT01 VLAN30</text>
<text x="1348" y="386" fill="#e2e8f0" font-family="Arial, sans-serif" font-size="22">HQ-W11-001 VLAN30</text>
<text x="1348" y="422" fill="#e2e8f0" font-family="Arial, sans-serif" font-size="22">PVE mgmt VLAN100</text>
<text x="70" y="850" fill="#94a3b8" font-family="Arial, sans-serif" font-size="18">GEIL architecture visual · dark 16:9 · canonical GNTECH values</text></svg>